<svg width="24" height="24" viewBox="0 0 24 24" fill="none" xmlns="http://www.w3.org/2000/svg">
<path d="M16.6117 2H7.38827C4.41213 2 2 4.41255 2 7.38869V16.6113C2 19.5874 4.41255 22 7.38869 22H16.6113C19.5874 22 22 19.5874 22 16.6113V7.38869C22 4.41255 19.5879 2 16.6117 2Z" stroke="black" stroke-width="1.5" stroke-miterlimit="10"/>
<path d="M12 16.8277C14.6663 16.8277 16.8277 14.6663 16.8277 12C16.8277 9.33379 14.6663 7.17236 12 7.17236C9.33379 7.17236 7.17236 9.33379 7.17236 12C7.17236 14.6663 9.33379 16.8277 12 16.8277Z" stroke="black" stroke-width="1.5" stroke-miterlimit="10"/>
<path d="M17.862 7.17234C18.4333 7.17234 18.8964 6.70923 18.8964 6.13796C18.8964 5.56668 18.4333 5.10358 17.862 5.10358C17.2907 5.10358 16.8276 5.56668 16.8276 6.13796C16.8276 6.70923 17.2907 7.17234 17.862 7.17234Z" fill="black"/>
</svg>
